<svg width="22" height="24" viewBox="0 0 22 24" fill="none" xmlns="http://www.w3.org/2000/svg">
<path d="M8.77778 11.1539V17.7539M13.2222 11.1539V17.7539M18.7778 5.65391V21.0539C18.7778 21.6374 18.5437 22.197 18.1269 22.6095C17.7102 23.0221 17.1449 23.2539 16.5556 23.2539H5.44444C4.85507 23.2539 4.28984 23.0221 3.8731 22.6095C3.45635 22.197 3.22222 21.6374 3.22222 21.0539V5.65391M1 5.65391H21M6.55556 5.65391V3.45391C6.55556 2.87043 6.78968 2.31085 7.20643 1.89827C7.62318 1.48569 8.18841 1.25391 8.77778 1.25391H13.2222C13.8116 1.25391 14.3768 1.48569 14.7936 1.89827C15.2103 2.31085 15.4444 2.87043 15.4444 3.45391V5.65391" stroke="#333333" stroke-width="1.5" stroke-linecap="round" stroke-linejoin="round"/>
</svg>
