<svg width="22" height="22" viewBox="0 0 22 22" fill="none" xmlns="http://www.w3.org/2000/svg">
<path d="M16.5556 21.2539V13.4761C16.5556 13.1814 16.4385 12.8988 16.2301 12.6905C16.0217 12.4821 15.7391 12.365 15.4444 12.365H6.55556C6.26087 12.365 5.97826 12.4821 5.76988 12.6905C5.56151 12.8988 5.44444 13.1814 5.44444 13.4761V21.2539M5.44444 1.25391V5.69835C5.44444 5.99304 5.56151 6.27565 5.76988 6.48402C5.97826 6.6924 6.26087 6.80946 6.55556 6.80946H14.3333M14.5556 1.25391C15.1417 1.26226 15.7008 1.50187 16.1111 1.92057L20.3333 6.1428C20.752 6.55309 20.9917 7.1122 21 7.69835V19.0317C21 19.6211 20.7659 20.1863 20.3491 20.603C19.9324 21.0198 19.3671 21.2539 18.7778 21.2539H3.22222C2.63285 21.2539 2.06762 21.0198 1.65087 20.603C1.23413 20.1863 1 19.6211 1 19.0317V3.47613C1 2.88676 1.23413 2.32153 1.65087 1.90478C2.06762 1.48803 2.63285 1.25391 3.22222 1.25391H14.5556Z" stroke="#333333" stroke-width="1.5" stroke-linecap="round" stroke-linejoin="round"/>
</svg>
