<?xml version="1.0" standalone="no"?>
<!DOCTYPE svg PUBLIC "-//W3C//DTD SVG 20010904//EN"
 "http://www.w3.org/TR/2001/REC-SVG-20010904/DTD/svg10.dtd">
<svg version="1.0" xmlns="http://www.w3.org/2000/svg"
 width="40.000000pt" height="40.000000pt" viewBox="0 0 40.000000 40.000000"
 preserveAspectRatio="xMidYMid meet">

<g transform="translate(0.000000,40.000000) scale(0.100000,-0.100000)"
fill="#000000" stroke="none">
<path d="M197 322 l-47 -48 65 -64 65 -64 47 44 c26 25 49 46 52 47 2 2 -2 9
-9 18 -12 14 -15 14 -36 0 -19 -12 -24 -13 -24 -2 0 7 4 17 10 23 6 6 -5 24
-33 51 l-44 42 -46 -47z"/>
<path d="M112 238 c-9 -9 -7 -17 10 -35 28 -30 19 -48 -43 -84 -36 -21 -44
-31 -44 -55 0 -24 5 -30 27 -32 21 -3 32 5 56 40 48 70 58 75 92 50 25 -19 30
-19 41 -6 10 12 1 24 -51 72 -74 67 -72 66 -88 50z"/>
</g>
</svg>
