<?xml version="1.0" encoding="UTF-8"?>
<svg id="Layer_1" xmlns="http://www.w3.org/2000/svg" version="1.1" viewBox="0 0 24 24">
  <!-- Generator: Adobe Illustrator 29.4.0, SVG Export Plug-In . SVG Version: 2.1.0 Build 152)  -->
  <defs>
    <style>
      .st0 {
        fill-rule: evenodd;
      }

      .st0, .st1 {
        fill: #231f20;
      }

      .st1 {
        opacity: .9;
      }

      .st2 {
        fill: none;
        stroke: #231f20;
        stroke-miterlimit: 10;
        stroke-width: .8px;
      }
    </style>
  </defs>
  <g>
    <g>
      <line class="st2" x1="-67.7" y1="21.9" x2="-69.7" y2="21.9"/>
      <polyline class="st2" points="-70.8 11.6 -70.8 5.8 -68.7 2.1 -66.6 5.8 -66.6 15.3"/>
      <line class="st2" x1="-70.8" y1="5.8" x2="-66.6" y2="5.8"/>
      <line class="st2" x1="-68.7" y1="13.2" x2="-68.7" y2="7"/>
    </g>
    <g>
      <line class="st2" x1="-81.5" y1="6.6" x2="-80.3" y2="6.6"/>
      <line class="st2" x1="-81.5" y1="8.7" x2="-79.4" y2="8.7"/>
      <line class="st2" x1="-81.5" y1="10.8" x2="-80.3" y2="10.8"/>
      <line class="st2" x1="-81.5" y1="12.8" x2="-79.4" y2="12.8"/>
      <line class="st2" x1="-81.5" y1="14.9" x2="-80.3" y2="14.9"/>
      <line class="st2" x1="-81.5" y1="17" x2="-79.4" y2="17"/>
      <line class="st2" x1="-81.5" y1="19" x2="-80.3" y2="19"/>
    </g>
    <polygon class="st2" points="-62.1 21.9 -81.9 21.9 -81.9 2.1 -62.1 21.9"/>
    <polygon class="st2" points="-70.8 18.2 -77.4 18.2 -77.4 11.6 -70.8 18.2"/>
  </g>
  <g>
    <path d="M-53.4,16.2c.1,0,.3-.1.3-.3V5.7c0-.3.2-.5.5-.5h16.8c.3,0,.5.2.5.5v10.3c0,.1.1.3.3.3s.3-.1.3-.3V5.7c0-.6-.5-1.1-1.1-1.1h-16.8c-.6,0-1.1.5-1.1,1.1v10.3c0,.1.1.3.3.3Z"/>
    <path d="M-32.8,17.2c0,0-.1-.1-.2-.1h-22.4c0,0-.2,0-.2.1,0,0,0,.2,0,.2.3,1.2,1.4,2,2.6,2h17.8c1.2,0,2.3-.8,2.6-2,0,0,0-.2,0-.2ZM-35.3,18.8h-17.8c-.8,0-1.6-.5-1.9-1.2h21.7c-.3.7-1.1,1.2-1.9,1.2Z"/>
    <path d="M-45.4,18.4h2.3c.1,0,.2,0,.2-.2s0-.2-.2-.2h-2.3c-.1,0-.2,0-.2.2s0,.2.2.2Z"/>
    <path d="M-37.4,8.9c-.1-.1-.3-.1-.4,0l-1.8,1.7-1.8-1.2c-.1,0-.2,0-.3,0l-1.9,1.8c-.1.1-.1.3,0,.4,0,0,.1,0,.2,0s.1,0,.2,0l1.8-1.7,1.8,1.2c.1,0,.2,0,.3,0l1.9-1.8c.1-.1.1-.3,0-.4Z"/>
    <path d="M-43.4,12.8c-.1,0-.3.1-.3.3v1.2c0,.1.1.3.3.3s.3-.1.3-.3v-1.2c0-.1-.1-.3-.3-.3Z"/>
    <path d="M-39.8,12.5v1.7c0,.1.1.3.3.3s.3-.1.3-.3v-1.7c0-.1-.1-.3-.3-.3s-.3.1-.3.3Z"/>
    <path d="M-41.7,11.2v3c0,.1.1.3.3.3s.3-.1.3-.3v-3c0-.1-.1-.3-.3-.3s-.3.1-.3.3Z"/>
    <path d="M-37.6,14.5c.1,0,.3-.1.3-.3v-3.6c0-.1-.1-.3-.3-.3s-.3.1-.3.3v3.6c0,.1.1.3.3.3Z"/>
    <path d="M-49,9.3c.1,0,.2-.2.2-.3,0-.1-.2-.2-.3-.2-1.2.4-2,1.5-2,2.8s1.3,3,3,3,2.4-.8,2.8-2c0-.1,0-.3-.2-.3-.1,0-.3,0-.3.2-.3,1-1.3,1.6-2.3,1.6s-2.4-1.1-2.4-2.4.7-1.9,1.6-2.3Z"/>
    <path d="M-44.8,11.5c0-.9-.3-1.7-.9-2.3-.6-.6-1.4-.9-2.3-.9s-.3.1-.3.3v3c0,.1.1.3.3.3h3c.1,0,.3-.1.3-.3ZM-47.8,11.2v-2.4c.6,0,1.2.3,1.6.8.4.4.7,1,.8,1.6h-2.4Z"/>
  </g>
  <path class="st1" d="M-7.5,8.4c0-.9-.4-1.8-1-2.4l-3.1-3.1c-1.3-1.3-3.6-1.3-4.9,0l-.5.5c-.1-.9-.9-1.6-1.8-1.6h-5.9c-1.6,0-3,1.3-3,3v14.3c0,1.6,1.3,3,3,3h14.3c1.6,0,3-1.3,3-3v-5.9c0-.9-.7-1.6-1.6-1.8l.5-.5c.7-.7,1-1.5,1-2.4ZM-26.5,4.9c0-1,.8-1.8,1.8-1.8h5.9c.3,0,.6.3.6.6v.9l-1.4,1.4c-1.4,1.4-1.4,3.5,0,4.9l.5.5h-7.5v-6.5ZM-26.5,19.1v-6.5h8.3v8.3h-6.5c-1,0-1.8-.8-1.8-1.8ZM-9.3,12.6c.3,0,.6.3.6.6v5.9c0,1-.8,1.8-1.8,1.8h-6.5v-7.5l.5.5c1.4,1.4,3.5,1.4,4.9,0l1.4-1.4h.9ZM-9.4,10c-.1.1-3.2,3.2-3.1,3.1-.9.9-2.4.9-3.2,0-.1-.1-3.2-3.2-3.1-3.1-.9-.9-.9-2.3,0-3.2.1-.1,3.2-3.2,3.1-3.1.9-.9,2.4-.9,3.2,0l3.1,3.1c.4.4.7,1,.7,1.6s-.2,1.2-.7,1.6Z"/>
  <g>
    <path class="st0" d="M2.3,9.4v1c0,1.1,0,2.3,0,3.4s0,.1,0,.2v1c0,1.1,0,2.3,0,3.4s1.5,1.6,2.4,1.8c1.5.4,3.3.5,4.8.5s.6,0,1,0v-.6c-.3,0-.6,0-1,0-3.6,0-6.6-.8-6.6-1.7s0-2.3,0-3.4c1.6,1.1,5.5,1.3,6.6,1.3s.6,0,1,0v-.7c-.3,0-.6,0-1,0-3.6,0-6.6-.8-6.6-1.7s0-2.3,0-3.4c1.6,1.1,5.5,1.3,6.6,1.3s.6,0,1,0v-.7c-.3,0-.6,0-1,0-3.6,0-6.6-.8-6.6-1.7,0-1.4,0-2.7,0-4.1,1.2.8,3.7,1.3,6.5,1.3s5.5-.6,6.7-1.4c0,.9,0,1.8,0,2.7h.6c0-.9,0-1.8,0-2.7v-1.2s0,0,0,0c-.1-1-1.6-1.5-2.4-1.7-1.5-.4-3.3-.5-4.8-.5s-3.3.1-4.8.5c-.8.2-2.4.7-2.4,1.8s0,.3,0,.4v.7c0,1.4,0,2.7,0,4.1s0,.1,0,.2h0ZM8.2,17.2c-.3,0-.6.3-.6.6s.3.6.6.6.6-.3.6-.6-.3-.6-.6-.6h0ZM4.8,17.2c-.3,0-.6.3-.6.6s.3.6.6.6.6-.3.6-.6-.3-.6-.6-.6h0ZM6.5,17.2c-.3,0-.6.3-.6.6s.3.6.6.6.6-.3.6-.6-.3-.6-.6-.6h0ZM9.4,2.3c-3.6,0-6.6.8-6.6,1.7s3,1.7,6.6,1.7,6.6-.8,6.6-1.7-3-1.7-6.6-1.7h0Z"/>
    <path class="st0" d="M11,20.7h0v.6c0,.3.1.5.3.7.2.2.4.3.7.3h7c0,0,1.6-1.7,1.6-1.7l1.2-1.2v-.2c0,0,0-10.1,0-10.1,0-.3-.1-.5-.3-.7-.2-.2-.4-.3-.7-.3h-.5s-.5,0-.5,0h0s-8,0-8,0c-.3,0-.5.1-.7.3-.2.2-.3.4-.3.7v11.1h0v.5h0ZM19.7,10.5h-6.7c-.1,0-.2,0-.2.2h0c0,.2,0,.3.2.3h6.7c.1,0,.2,0,.2-.2h0c0-.2,0-.3-.2-.3h0ZM19.7,17.3h-6.7c-.1,0-.2,0-.2.2h0c0,.2,0,.3.2.3h6.7c.1,0,.2,0,.2-.2h0c0-.2,0-.3-.2-.3h0ZM19.7,15h-6.7c-.1,0-.2,0-.2.2h0c0,.2,0,.3.2.3h6.7c.1,0,.2,0,.2-.2h0c0-.2,0-.3-.2-.3h0ZM19.7,12.8h-6.7c-.1,0-.2,0-.2.2h0c0,.2,0,.3.2.3h6.7c.1,0,.2,0,.2-.2h0c0-.2,0-.3-.2-.3h0ZM19,21.5l1.9-2h-1.6c0,0-.2,0-.3.1,0,0-.1.2-.1.3v1.6h0ZM11.5,10.3v-1.2c0-.1,0-.2.1-.3,0,0,.2-.1.3-.1h8.9c.1,0,.2,0,.3.1,0,0,.1.2.1.3v10h0s-1.8,0-1.8,0c-.2,0-.4,0-.5.2-.1.1-.2.3-.2.5v1.8h0s-6.7,0-6.7,0c-.1,0-.2,0-.3-.1,0,0-.1-.2-.1-.3v-11h0Z"/>
  </g>
</svg>