<?xml version="1.0" encoding="UTF-8"?>
<svg id="Layer_1" xmlns="http://www.w3.org/2000/svg" version="1.1" viewBox="0 0 24 24">
  <!-- Generator: Adobe Illustrator 29.4.0, SVG Export Plug-In . SVG Version: 2.1.0 Build 152)  -->
  <defs>
    <style>
      .st0 {
        fill: none;
        stroke: #231f20;
        stroke-miterlimit: 10;
      }
    </style>
  </defs>
  <g>
    <g>
      <line class="st0" x1="-11.4" y1="21.9" x2="-13.5" y2="21.9"/>
      <polyline class="st0" points="-14.5 11.6 -14.5 5.8 -12.5 2.1 -10.4 5.8 -10.4 15.3"/>
      <line class="st0" x1="-14.5" y1="5.8" x2="-10.4" y2="5.8"/>
      <line class="st0" x1="-12.5" y1="13.2" x2="-12.5" y2="7"/>
    </g>
    <g>
      <line class="st0" x1="-25.3" y1="6.6" x2="-24" y2="6.6"/>
      <line class="st0" x1="-25.3" y1="8.7" x2="-23.2" y2="8.7"/>
      <line class="st0" x1="-25.3" y1="10.8" x2="-24" y2="10.8"/>
      <line class="st0" x1="-25.3" y1="12.8" x2="-23.2" y2="12.8"/>
      <line class="st0" x1="-25.3" y1="14.9" x2="-24" y2="14.9"/>
      <line class="st0" x1="-25.3" y1="17" x2="-23.2" y2="17"/>
      <line class="st0" x1="-25.3" y1="19" x2="-24" y2="19"/>
    </g>
    <polygon class="st0" points="-5.9 21.9 -25.7 21.9 -25.7 2.1 -5.9 21.9"/>
    <polygon class="st0" points="-14.5 18.2 -21.1 18.2 -21.1 11.6 -14.5 18.2"/>
  </g>
  <g>
    <path d="M2.8,16.2c.1,0,.3-.1.3-.3V5.7c0-.3.2-.5.5-.5h16.8c.3,0,.5.2.5.5v10.3c0,.1.1.3.3.3s.3-.1.3-.3V5.7c0-.6-.5-1.1-1.1-1.1H3.6c-.6,0-1.1.5-1.1,1.1v10.3c0,.1.1.3.3.3Z"/>
    <path d="M23.4,17.2c0,0-.1-.1-.2-.1H.8c0,0-.2,0-.2.1,0,0,0,.2,0,.2.3,1.2,1.4,2,2.6,2h17.8c1.2,0,2.3-.8,2.6-2,0,0,0-.2,0-.2ZM20.9,18.8H3.1c-.8,0-1.6-.5-1.9-1.2h21.7c-.3.7-1.1,1.2-1.9,1.2Z"/>
    <path d="M10.9,18.4h2.3c.1,0,.2,0,.2-.2s0-.2-.2-.2h-2.3c-.1,0-.2,0-.2.2s0,.2.2.2Z"/>
    <path d="M18.8,8.9c-.1-.1-.3-.1-.4,0l-1.8,1.7-1.8-1.2c-.1,0-.2,0-.3,0l-1.9,1.8c-.1.1-.1.3,0,.4,0,0,.1,0,.2,0s.1,0,.2,0l1.8-1.7,1.8,1.2c.1,0,.2,0,.3,0l1.9-1.8c.1-.1.1-.3,0-.4Z"/>
    <path d="M12.9,12.8c-.1,0-.3.1-.3.3v1.2c0,.1.1.3.3.3s.3-.1.3-.3v-1.2c0-.1-.1-.3-.3-.3Z"/>
    <path d="M16.5,12.5v1.7c0,.1.1.3.3.3s.3-.1.3-.3v-1.7c0-.1-.1-.3-.3-.3s-.3.1-.3.3Z"/>
    <path d="M14.5,11.2v3c0,.1.1.3.3.3s.3-.1.3-.3v-3c0-.1-.1-.3-.3-.3s-.3.1-.3.3Z"/>
    <path d="M18.7,14.5c.1,0,.3-.1.3-.3v-3.6c0-.1-.1-.3-.3-.3s-.3.1-.3.3v3.6c0,.1.1.3.3.3Z"/>
    <path d="M7.2,9.3c.1,0,.2-.2.2-.3,0-.1-.2-.2-.3-.2-1.2.4-2,1.5-2,2.8s1.3,3,3,3,2.4-.8,2.8-2c0-.1,0-.3-.2-.3-.1,0-.3,0-.3.2-.3,1-1.3,1.6-2.3,1.6s-2.4-1.1-2.4-2.4.7-1.9,1.6-2.3Z"/>
    <path d="M11.4,11.5c0-.9-.3-1.7-.9-2.3-.6-.6-1.4-.9-2.3-.9s-.3.1-.3.3v3c0,.1.1.3.3.3h3c.1,0,.3-.1.3-.3ZM8.4,11.2v-2.4c.6,0,1.2.3,1.6.8.4.4.7,1,.8,1.6h-2.4Z"/>
  </g>
</svg>