<?xml version="1.0" encoding="UTF-8"?>
<svg id="Layer_1" xmlns="http://www.w3.org/2000/svg" version="1.1" viewBox="0 0 24 24">
  <!-- Generator: Adobe Illustrator 29.4.0, SVG Export Plug-In . SVG Version: 2.1.0 Build 152)  -->
  <defs>
    <style>
      .st0 {
        fill: #231f20;
        opacity: .9;
      }

      .st1 {
        fill: none;
        stroke: #231f20;
        stroke-miterlimit: 10;
      }
    </style>
  </defs>
  <g>
    <g>
      <line class="st1" x1="-38" y1="21.9" x2="-40.1" y2="21.9"/>
      <polyline class="st1" points="-41.1 11.6 -41.1 5.8 -39.1 2.1 -37 5.8 -37 15.3"/>
      <line class="st1" x1="-41.1" y1="5.8" x2="-37" y2="5.8"/>
      <line class="st1" x1="-39.1" y1="13.2" x2="-39.1" y2="7"/>
    </g>
    <g>
      <line class="st1" x1="-51.9" y1="6.6" x2="-50.6" y2="6.6"/>
      <line class="st1" x1="-51.9" y1="8.7" x2="-49.8" y2="8.7"/>
      <line class="st1" x1="-51.9" y1="10.8" x2="-50.6" y2="10.8"/>
      <line class="st1" x1="-51.9" y1="12.8" x2="-49.8" y2="12.8"/>
      <line class="st1" x1="-51.9" y1="14.9" x2="-50.6" y2="14.9"/>
      <line class="st1" x1="-51.9" y1="17" x2="-49.8" y2="17"/>
      <line class="st1" x1="-51.9" y1="19" x2="-50.6" y2="19"/>
    </g>
    <polygon class="st1" points="-32.5 21.9 -52.3 21.9 -52.3 2.1 -32.5 21.9"/>
    <polygon class="st1" points="-41.1 18.2 -47.8 18.2 -47.8 11.6 -41.1 18.2"/>
  </g>
  <g>
    <path d="M-23.8,16.2c.1,0,.3-.1.3-.3V5.7c0-.3.2-.5.5-.5H-6.2c.3,0,.5.2.5.5v10.3c0,.1.1.3.3.3s.3-.1.3-.3V5.7c0-.6-.5-1.1-1.1-1.1h-16.8c-.6,0-1.1.5-1.1,1.1v10.3c0,.1.1.3.3.3Z"/>
    <path d="M-3.2,17.2c0,0-.1-.1-.2-.1h-22.4c0,0-.2,0-.2.1,0,0,0,.2,0,.2.3,1.2,1.4,2,2.6,2H-5.7c1.2,0,2.3-.8,2.6-2,0,0,0-.2,0-.2ZM-5.7,18.8h-17.8c-.8,0-1.6-.5-1.9-1.2H-3.8c-.3.7-1.1,1.2-1.9,1.2Z"/>
    <path d="M-15.8,18.4h2.3c.1,0,.2,0,.2-.2s0-.2-.2-.2h-2.3c-.1,0-.2,0-.2.2s0,.2.2.2Z"/>
    <path d="M-7.8,8.9c-.1-.1-.3-.1-.4,0l-1.8,1.7-1.8-1.2c-.1,0-.2,0-.3,0l-1.9,1.8c-.1.1-.1.3,0,.4,0,0,.1,0,.2,0s.1,0,.2,0l1.8-1.7,1.8,1.2c.1,0,.2,0,.3,0l1.9-1.8c.1-.1.1-.3,0-.4Z"/>
    <path d="M-13.8,12.8c-.1,0-.3.1-.3.3v1.2c0,.1.1.3.3.3s.3-.1.3-.3v-1.2c0-.1-.1-.3-.3-.3Z"/>
    <path d="M-10.2,12.5v1.7c0,.1.1.3.3.3s.3-.1.3-.3v-1.7c0-.1-.1-.3-.3-.3s-.3.1-.3.3Z"/>
    <path d="M-12.1,11.2v3c0,.1.1.3.3.3s.3-.1.3-.3v-3c0-.1-.1-.3-.3-.3s-.3.1-.3.3Z"/>
    <path d="M-8,14.5c.1,0,.3-.1.3-.3v-3.6c0-.1-.1-.3-.3-.3s-.3.1-.3.3v3.6c0,.1.1.3.3.3Z"/>
    <path d="M-19.4,9.3c.1,0,.2-.2.2-.3,0-.1-.2-.2-.3-.2-1.2.4-2,1.5-2,2.8s1.3,3,3,3,2.4-.8,2.8-2c0-.1,0-.3-.2-.3-.1,0-.3,0-.3.2-.3,1-1.3,1.6-2.3,1.6s-2.4-1.1-2.4-2.4.7-1.9,1.6-2.3Z"/>
    <path d="M-15.2,11.5c0-.9-.3-1.7-.9-2.3-.6-.6-1.4-.9-2.3-.9s-.3.1-.3.3v3c0,.1.1.3.3.3h3c.1,0,.3-.1.3-.3ZM-18.2,11.2v-2.4c.6,0,1.2.3,1.6.8.4.4.7,1,.8,1.6h-2.4Z"/>
  </g>
  <path class="st0" d="M22.1,8.4c0-.9-.4-1.8-1-2.4l-3.1-3.1c-1.3-1.3-3.6-1.3-4.9,0l-.5.5c-.1-.9-.9-1.6-1.8-1.6h-5.9c-1.6,0-3,1.3-3,3v14.3c0,1.6,1.3,3,3,3h14.3c1.6,0,3-1.3,3-3v-5.9c0-.9-.7-1.6-1.6-1.8l.5-.5c.7-.7,1-1.5,1-2.4ZM3.1,4.9c0-1,.8-1.8,1.8-1.8h5.9c.3,0,.6.3.6.6v.9l-1.4,1.4c-1.4,1.4-1.4,3.5,0,4.9l.5.5H3.1v-6.5ZM3.1,19.1v-6.5h8.3v8.3h-6.5c-1,0-1.8-.8-1.8-1.8ZM20.3,12.6c.3,0,.6.3.6.6v5.9c0,1-.8,1.8-1.8,1.8h-6.5v-7.5l.5.5c1.4,1.4,3.5,1.4,4.9,0l1.4-1.4h.9ZM20.3,10c-.1.1-3.2,3.2-3.1,3.1-.9.9-2.4.9-3.2,0-.1-.1-3.2-3.2-3.1-3.1-.9-.9-.9-2.3,0-3.2.1-.1,3.2-3.2,3.1-3.1.9-.9,2.4-.9,3.2,0l3.1,3.1c.4.4.7,1,.7,1.6s-.2,1.2-.7,1.6Z"/>
</svg>